<svg width="12" height="8" viewBox="0 0 12 8" fill="none" xmlns="http://www.w3.org/2000/svg">
<path d="M5.82506 7.47505C5.69173 7.47505 5.56273 7.45005 5.43806 7.40005C5.31273 7.35005 5.20839 7.28338 5.12506 7.20005L0.525061 2.60005C0.341727 2.41672 0.250061 2.18338 0.250061 1.90005C0.250061 1.61671 0.341727 1.38338 0.525061 1.20005C0.708394 1.01672 0.941728 0.925049 1.22506 0.925049C1.50839 0.925049 1.74173 1.01672 1.92506 1.20005L5.82506 5.10005L9.72506 1.20005C9.90839 1.01672 10.1417 0.925049 10.4251 0.925049C10.7084 0.925049 10.9417 1.01672 11.1251 1.20005C11.3084 1.38338 11.4001 1.61671 11.4001 1.90005C11.4001 2.18338 11.3084 2.41672 11.1251 2.60005L6.52506 7.20005C6.42506 7.30005 6.31673 7.37072 6.20006 7.41205C6.08339 7.45405 5.95839 7.47505 5.82506 7.47505Z" fill="black"/>
</svg>
