<svg width="137" height="162" viewBox="0 0 137 162" fill="none" xmlns="http://www.w3.org/2000/svg">
<path d="M96.569 74.6295C96.6863 76.8637 96.8407 79.1337 97.0319 81.4393L97.0321 81.441C97.365 85.4142 97.7915 89.46 98.3112 93.5786C96.4067 94.6156 94.3629 95.8794 92.1817 97.3633L92.1749 97.368L92.1681 97.3727C89.5268 99.2017 86.8496 101.304 84.1362 103.677C81.4154 106.056 78.7691 108.641 76.1969 111.431L76.1913 111.437L76.1858 111.443C73.585 114.311 71.2652 117.347 69.2279 120.55L69.2223 120.559L69.2167 120.568C67.2154 123.79 65.5912 127.137 64.3478 130.608L64.3437 130.62L64.3397 130.632C63.1214 134.169 62.5083 137.768 62.5083 141.422C62.5083 144.071 62.961 146.545 63.8957 148.82C64.8165 151.107 66.1094 153.096 67.783 154.76C69.4505 156.418 71.4224 157.703 73.6757 158.62C75.9577 159.548 78.4211 160 81.0433 160C86.2184 160 90.7198 158.671 94.427 155.909C98.0273 153.271 100.866 149.714 102.963 145.303C105.084 140.94 106.579 135.929 107.476 130.296C108.367 124.703 108.81 118.843 108.81 112.718C108.81 110.124 108.74 107.553 108.601 105.004C108.487 102.934 108.342 100.878 108.167 98.8371C110.042 97.9308 111.54 97.2726 112.676 96.849L112.692 96.8433L112.707 96.8373C113.466 96.5401 114.049 96.3102 114.456 96.1484C114.715 96.0456 114.973 95.9428 115.145 95.8683C115.499 95.7326 116.294 95.3917 117.186 95.0053C118.281 94.5301 119.691 93.9103 121.095 93.2833C122.495 92.6573 123.9 92.0196 124.979 91.5099C125.515 91.2562 125.988 91.0265 126.345 90.8421C126.521 90.7514 126.692 90.6596 126.837 90.5741C126.907 90.5323 126.997 90.4774 127.087 90.4137L127.093 90.41C127.143 90.3748 127.371 90.2155 127.571 89.9596L127.602 89.9199L127.624 89.8897C127.621 89.893 127.62 89.8947 127.62 89.8948C127.621 89.8953 127.66 89.8461 127.776 89.7111C127.857 89.6177 127.95 89.5107 128.058 89.3858C128.123 89.3112 128.193 89.2302 128.27 89.142C128.668 88.6825 129.187 88.0787 129.713 87.4254C130.236 86.7766 130.789 86.0514 131.249 85.3477C131.676 84.695 132.153 83.87 132.349 83.0597L132.365 82.9935L132.377 82.9264C132.991 79.3349 133.478 76.7051 133.828 74.8198C134.094 73.3861 134.28 72.3829 134.381 71.7147C134.442 71.3108 134.49 70.9247 134.499 70.5862C134.505 70.3308 134.513 69.7063 134.166 69.1087C133.667 68.2478 132.836 68.0261 132.332 67.9966C132.158 67.9864 131.97 67.9981 131.826 68.012C131.407 68.008 131.069 68.1344 130.85 68.2498C130.412 68.4808 130.166 68.8141 130.097 68.9082C129.908 69.1655 129.773 69.4553 129.691 69.6378C129.504 70.0573 129.297 70.6296 129.088 71.247C128.674 72.4703 128.168 74.1232 127.668 75.7592L127.627 75.8925C127.107 77.5937 126.594 79.2678 126.17 80.5164C126.017 80.9649 125.884 81.3329 125.774 81.6147C125.014 81.8641 124.316 82.1563 123.776 82.3973C123.468 82.5349 123.196 82.6627 122.996 82.7568C122.957 82.775 122.921 82.792 122.888 82.8075C122.837 82.8314 122.797 82.8501 122.766 82.8646C122.763 82.8653 122.761 82.8659 122.759 82.8665C122.683 82.8882 122.61 82.9128 122.557 82.931C122.444 82.9701 122.301 83.0226 122.146 83.0813C121.831 83.2006 121.398 83.3704 120.892 83.5712C119.877 83.9739 118.535 84.5155 117.188 85.0621C116.224 85.4532 115.253 85.8482 114.393 86.1979C114.051 86.3371 113.727 86.4691 113.427 86.5908C112.901 86.805 112.453 86.987 112.121 87.121C111.954 87.1881 111.82 87.2422 111.72 87.2819C111.679 87.2983 111.647 87.3107 111.625 87.3196C110.996 87.4995 110.135 87.8251 109.096 88.2554C108.505 88.4861 107.803 88.7892 106.996 89.1616C106.53 85.3683 106.169 81.7569 105.912 78.3268C105.639 74.0726 105.503 70.169 105.503 66.6139C105.503 64.3458 105.562 62.2226 105.68 60.2433C107.221 57.2768 108.397 54.6081 109.189 52.2469C110.001 49.8248 110.464 47.6729 110.464 45.8568C110.464 44.1253 109.994 42.5267 108.908 41.2317C107.863 39.9286 106.433 39.1984 104.743 39.1984C101.482 39.1984 99.5997 41.8633 98.5698 45.0332L98.5668 45.0424L98.5639 45.0516C97.6004 48.1173 96.9538 52.3981 96.578 57.806C93.3759 63.4649 89.7634 68.8662 85.7397 74.0105C81.6542 79.1883 77.1267 83.7329 72.1577 87.65C67.2581 91.5028 61.916 94.5794 56.1261 96.8827C50.452 99.1128 44.3188 100.237 37.7078 100.237C33.9424 100.237 30.4484 99.737 27.2143 98.7527C24.0865 97.7418 21.3848 96.1743 19.0837 94.0527C16.8117 91.9579 14.9968 89.2351 13.6679 85.8265C12.3555 82.4148 11.6672 78.2425 11.6672 73.2589C11.6672 67.7659 12.5279 62.4325 14.2496 57.2502C16.0314 52.0257 18.4351 47.113 21.4622 42.5084C24.5407 37.8957 28.1553 33.6801 32.3097 29.8601L32.3097 29.8602L32.3182 29.8523C36.4822 25.979 40.9537 22.6675 45.7336 19.9136L45.7336 19.9136L45.7456 19.9066C50.5222 17.1102 55.4924 14.9613 60.6585 13.4557L60.6585 13.4557L60.6691 13.4526C65.8693 11.9058 71.0053 11.1379 76.0828 11.1379C81.9021 11.1379 86.7406 11.8516 90.6486 13.218C94.6673 14.6232 97.8949 16.3509 100.385 18.3654L100.392 18.3706L100.398 18.3757C102.996 20.4422 104.984 22.6647 106.404 25.0324L106.408 25.0391L106.412 25.0458C107.911 27.5003 108.984 29.7766 109.66 31.8778L109.668 31.901L109.676 31.924C110.427 34.0778 110.832 35.801 110.95 37.1278L110.952 37.157L110.956 37.1861C111.048 37.9657 111.124 38.5814 111.183 39.0288C111.223 39.3326 111.267 39.651 111.312 39.8843C111.466 41.0289 111.949 42.081 112.841 42.8876C113.719 43.6809 114.795 44.089 115.973 44.089C117.265 44.089 118.418 43.58 119.266 42.5885C120.06 41.7126 120.523 40.635 120.523 39.4173C120.523 39.2849 120.506 39.127 120.505 39.1195C120.498 39.0497 120.489 38.9578 120.477 38.8471C120.454 38.6339 120.421 38.3329 120.378 37.9463C120.321 37.0004 120.143 35.8485 119.867 34.5209C119.618 33.0967 119.206 31.4944 118.645 29.7236C118.103 27.8695 117.349 25.9656 116.391 24.0133L116.387 24.0044L116.382 23.9956C115.207 21.658 113.613 19.2408 111.625 16.7446C109.59 14.0838 106.946 11.6871 103.733 9.53938C100.5 7.30207 96.6123 5.51298 92.1056 4.14419C87.5028 2.70019 82.1504 2 76.0828 2C69.7284 2 63.4915 2.9433 57.3785 4.82757C51.3427 6.65661 45.5908 9.21207 40.1255 12.4912C34.7109 15.7217 29.6986 19.5598 25.0898 24.0022L25.0898 24.0022L25.0824 24.0093C20.5178 28.4545 16.5606 33.325 13.2146 38.6196C9.86415 43.8756 7.24246 49.4408 5.35272 55.3121C3.45252 61.1701 2.5 67.1319 2.5 73.1904C2.5 78.9016 3.30667 84.0295 4.96532 88.5407C6.61658 93.0318 8.99306 96.8512 12.1152 99.9556C15.2222 103.045 18.9366 105.387 23.2299 106.988L23.2392 106.991L23.2486 106.995C27.5393 108.546 32.275 109.306 37.4322 109.306C43.1014 109.306 48.7826 108.453 54.47 106.756L54.4801 106.753C60.2179 105.009 65.7759 102.443 71.1525 99.0665C76.5302 95.6893 81.6546 91.5258 86.5281 86.5873C90.1037 82.9977 93.4502 79.0106 96.569 74.6295ZM130.5 70.4831C130.5 70.4844 130.5 70.4857 130.5 70.4871C130.496 70.4336 130.501 70.4257 130.5 70.4831ZM95.0878 106.605L95.0934 106.601C96.5466 105.558 97.9625 104.606 99.3412 103.745C99.4076 104.751 99.463 105.74 99.5074 106.712C99.5979 108.738 99.6431 110.717 99.6431 112.649C99.6431 125.629 97.8368 135.198 94.4355 141.577L94.4329 141.582C91.0691 147.933 86.6185 150.794 81.0433 150.794C79.6138 150.794 78.3524 150.557 77.2353 150.113C76.0981 149.661 75.1348 149.031 74.3237 148.224L74.3073 148.208L74.2904 148.192C73.5124 147.453 72.8889 146.521 72.4348 145.354L72.4308 145.344L72.4266 145.334C71.986 144.239 71.7443 142.945 71.7443 141.422C71.7443 138.854 72.145 136.276 72.956 133.681C73.8257 131.091 75.0015 128.557 76.4888 126.078C77.9906 123.574 79.7392 121.152 81.7375 118.812C83.75 116.455 85.8723 114.256 88.1041 112.214C90.3917 110.163 92.7197 108.294 95.0878 106.605Z" fill="black" stroke="black" stroke-width="4"/>
</svg>
