<svg width="25" height="27" viewBox="0 0 25 27" fill="none" xmlns="http://www.w3.org/2000/svg">
<path d="M20.9999 15.5H11.4124L11.7061 15.2062L14.2136 12.6987C15.2264 13.2087 16.3423 13.4807 17.4761 13.4937C18.6174 13.4967 19.7374 13.1844 20.7124 12.5912C23.6774 10.7962 25.2661 6.64121 24.9624 1.47621C24.9481 1.23157 24.8445 1.00069 24.6712 0.827405C24.4979 0.654121 24.267 0.5505 24.0224 0.536213C18.8574 0.233713 14.7024 1.82121 12.9074 4.78621C11.7374 6.71746 11.7074 9.04996 12.7986 11.2862L10.9999 13.085L9.47364 11.5587C10.2236 9.90246 10.1699 8.18371 9.29989 6.74871C7.94114 4.49996 4.82614 3.30121 0.966136 3.52746C0.721917 3.54202 0.491505 3.64559 0.318509 3.81859C0.145513 3.99158 0.0419383 4.22199 0.0273865 4.46621C-0.200114 8.32496 0.999886 11.44 3.24989 12.8C4.00263 13.2596 4.86792 13.5019 5.74989 13.5C6.55002 13.492 7.33926 13.3135 8.06489 12.9762L9.58489 14.5L8.58489 15.5H2.99989C2.73467 15.5 2.48032 15.6053 2.29278 15.7929C2.10524 15.9804 1.99989 16.2347 1.99989 16.5C1.99989 16.7652 2.10524 17.0195 2.29278 17.2071C2.48032 17.3946 2.73467 17.5 2.99989 17.5H4.19864L5.84989 24.9337C5.94668 25.3789 6.19341 25.7774 6.54882 26.0625C6.90423 26.3476 7.34676 26.5021 7.80239 26.5H16.1986C16.6543 26.5021 17.0968 26.3476 17.4522 26.0625C17.8076 25.7774 18.0543 25.3789 18.1511 24.9337L19.8024 17.5H20.9999C21.2651 17.5 21.5195 17.3946 21.707 17.2071C21.8945 17.0195 21.9999 16.7652 21.9999 16.5C21.9999 16.2347 21.8945 15.9804 21.707 15.7929C21.5195 15.6053 21.2651 15.5 20.9999 15.5ZM14.6249 5.82246C15.9324 3.66496 19.0299 2.44746 22.9999 2.50121C23.0511 6.47746 21.8361 9.57371 19.6786 10.8762C18.2399 11.7512 16.5036 11.6937 14.7686 10.7287C13.8024 8.99996 13.7499 7.26121 14.6249 5.82246ZM7.51364 11.0137C6.36364 11.63 5.22489 11.6587 4.28489 11.0887C2.84739 10.2175 2.01864 8.16371 1.99989 5.49996C4.66364 5.51871 6.71864 6.34746 7.58864 7.78496C8.15864 8.72496 8.12489 9.86371 7.51364 11.0137ZM16.1986 24.5H7.80239L6.24989 17.5H17.7499L16.1986 24.5Z" fill="black"/>
</svg>
