<svg width="12" height="12" viewBox="0 0 12 12" fill="none" xmlns="http://www.w3.org/2000/svg">
                    <path d="M11.3333 5.59334C11.4572 5.50105 11.5491 5.3723 11.5961 5.22515C11.6432 5.07799 11.6429 4.91981 11.5955 4.77278C11.5481 4.62575 11.4559 4.49725 11.3317 4.40529C11.2076 4.31333 11.0578 4.26253 10.9033 4.26001L7.90333 4.14667C7.88858 4.14566 7.87444 4.1404 7.86261 4.13152C7.85079 4.12265 7.84177 4.11055 7.83667 4.09667L6.8 1.29667C6.74791 1.15422 6.65331 1.03121 6.529 0.944307C6.40469 0.8574 6.25668 0.810791 6.105 0.810791C5.95332 0.810791 5.80531 0.8574 5.681 0.944307C5.55669 1.03121 5.46209 1.15422 5.41 1.29667L4.37667 4.10667C4.37156 4.12055 4.36255 4.13265 4.35072 4.14152C4.33889 4.15039 4.32475 4.15566 4.31 4.15668L1.31 4.27001C1.15554 4.27253 1.00573 4.32333 0.881598 4.41529C0.757463 4.50725 0.66522 4.63575 0.617804 4.78278C0.570387 4.92981 0.570174 5.08799 0.617195 5.23515C0.664216 5.3823 0.756113 5.51105 0.88 5.60334L3.23333 7.45334C3.24511 7.46261 3.25391 7.47513 3.25865 7.48935C3.26339 7.50356 3.26386 7.51886 3.26 7.53334L2.45 10.4033C2.40803 10.5495 2.41209 10.705 2.46165 10.8488C2.5112 10.9925 2.60384 11.1175 2.72695 11.2068C2.85006 11.296 2.99768 11.3452 3.14972 11.3475C3.30176 11.3499 3.45083 11.3054 3.57667 11.22L6.06333 9.55334C6.07558 9.54488 6.09012 9.54035 6.105 9.54035C6.11989 9.54035 6.13442 9.54488 6.14667 9.55334L8.63333 11.22C8.75747 11.3083 8.90601 11.3557 9.05833 11.3557C9.21066 11.3557 9.3592 11.3083 9.48333 11.22C9.60648 11.1316 9.6992 11.0072 9.74875 10.864C9.79829 10.7207 9.80222 10.5656 9.76 10.42L8.94333 7.54001C8.93901 7.52555 8.93925 7.51011 8.94402 7.49579C8.94879 7.48147 8.95786 7.46898 8.97 7.46001L11.3333 5.59334ZM8.3 7.70334L9.11667 10.5833C9.12332 10.5987 9.12449 10.6159 9.12 10.6321C9.11551 10.6482 9.10562 10.6624 9.09197 10.6721C9.07833 10.6818 9.06176 10.6866 9.04503 10.6856C9.02829 10.6846 9.0124 10.678 9 10.6667L6.51333 9.00001C6.39132 8.9174 6.24734 8.87328 6.1 8.87334V1.48001C6.11569 1.47873 6.13133 1.48306 6.14414 1.49221C6.15696 1.50136 6.16612 1.51475 6.17 1.53001L7.20667 4.33334C7.25688 4.47151 7.34711 4.59158 7.46584 4.67826C7.58458 4.76493 7.72644 4.81428 7.87333 4.82001L10.8733 4.93334C10.889 4.93309 10.9044 4.93787 10.9171 4.94699C10.9299 4.95611 10.9394 4.96908 10.9443 4.984C10.9491 4.99892 10.949 5.015 10.9441 5.02988C10.9391 5.04476 10.9295 5.05766 10.9167 5.06668L8.56333 6.91668C8.44551 7.00619 8.35738 7.1291 8.31041 7.26942C8.26344 7.40973 8.25981 7.56094 8.3 7.70334Z" fill="black"></path>
                  </svg>