<svg width="40" height="40" viewBox="0 0 40 40" fill="none" xmlns="http://www.w3.org/2000/svg">
<rect x="0.00012207" width="40" height="40" rx="8" fill="white" fill-opacity="0.1"/>
<path d="M24.9893 13.8934C24.7678 13.8934 24.5513 13.9591 24.3671 14.0822C24.1829 14.2052 24.0394 14.3801 23.9546 14.5848C23.8698 14.7894 23.8476 15.0146 23.8909 15.2319C23.9341 15.4492 24.0407 15.6487 24.1974 15.8054C24.354 15.962 24.5536 16.0687 24.7708 16.1119C24.9881 16.1551 25.2133 16.1329 25.4179 16.0481C25.6226 15.9634 25.7975 15.8198 25.9206 15.6356C26.0436 15.4515 26.1093 15.2349 26.1093 15.0134C26.1093 14.7164 25.9913 14.4315 25.7813 14.2214C25.5713 14.0114 25.2864 13.8934 24.9893 13.8934ZM29.2827 16.1521C29.2645 15.3777 29.1195 14.6115 28.8533 13.8841C28.616 13.2617 28.2467 12.6981 27.7707 12.2321C27.3085 11.7537 26.7436 11.3866 26.1187 11.1587C25.3931 10.8845 24.6261 10.7361 23.8507 10.7201C22.8613 10.6641 22.544 10.6641 20.0053 10.6641C17.4667 10.6641 17.1493 10.6641 16.16 10.7201C15.3845 10.7361 14.6175 10.8845 13.892 11.1587C13.2682 11.3889 12.7038 11.7557 12.24 12.2321C11.7616 12.6942 11.3946 13.2591 11.1667 13.8841C10.8924 14.6096 10.7441 15.3766 10.728 16.1521C10.672 17.1414 10.672 17.4587 10.672 19.9974C10.672 22.5361 10.672 22.8534 10.728 23.8427C10.7441 24.6182 10.8924 25.3852 11.1667 26.1107C11.3946 26.7357 11.7616 27.3006 12.24 27.7627C12.7038 28.2391 13.2682 28.6059 13.892 28.8361C14.6175 29.1103 15.3845 29.2587 16.16 29.2747C17.1493 29.3307 17.4667 29.3307 20.0053 29.3307C22.544 29.3307 22.8613 29.3307 23.8507 29.2747C24.6261 29.2587 25.3931 29.1103 26.1187 28.8361C26.7436 28.6082 27.3085 28.2411 27.7707 27.7627C28.2488 27.2985 28.6184 26.7344 28.8533 26.1107C29.1195 25.3833 29.2645 24.6171 29.2827 23.8427C29.2827 22.8534 29.3387 22.5361 29.3387 19.9974C29.3387 17.4587 29.3387 17.1414 29.2827 16.1521ZM27.6027 23.7307C27.5959 24.3232 27.4886 24.9102 27.2853 25.4667C27.1363 25.8729 26.897 26.2399 26.5853 26.5401C26.2826 26.8485 25.9163 27.0874 25.512 27.2401C24.9555 27.4433 24.3685 27.5506 23.776 27.5574C22.8427 27.6041 22.4973 27.6134 20.0427 27.6134C17.588 27.6134 17.2427 27.6134 16.3093 27.5574C15.6942 27.5689 15.0816 27.4742 14.4987 27.2774C14.1121 27.1169 13.7626 26.8787 13.472 26.5774C13.1622 26.2776 12.9259 25.9102 12.7813 25.5041C12.5535 24.9395 12.4271 24.3392 12.408 23.7307C12.408 22.7974 12.352 22.4521 12.352 19.9974C12.352 17.5427 12.352 17.1974 12.408 16.2641C12.4122 15.6584 12.5228 15.0581 12.7347 14.4907C12.899 14.0968 13.1512 13.7456 13.472 13.4641C13.7556 13.1432 14.106 12.8883 14.4987 12.7174C15.0676 12.5121 15.6672 12.4048 16.272 12.4001C17.2053 12.4001 17.5507 12.3441 20.0053 12.3441C22.46 12.3441 22.8053 12.3441 23.7387 12.4001C24.3311 12.4069 24.9181 12.5142 25.4747 12.7174C25.8988 12.8748 26.2795 13.1307 26.5853 13.4641C26.8912 13.7508 27.1302 14.1013 27.2853 14.4907C27.4928 15.0591 27.6001 15.6591 27.6027 16.2641C27.6493 17.1974 27.6587 17.5427 27.6587 19.9974C27.6587 22.4521 27.6493 22.7974 27.6027 23.7307ZM20.0053 15.2094C19.0588 15.2112 18.134 15.4936 17.3478 16.0209C16.5617 16.5481 15.9494 17.2965 15.5885 18.1716C15.2275 19.0466 15.134 20.009 15.3198 20.9372C15.5056 21.8654 15.9624 22.7176 16.6323 23.3863C17.3023 24.055 18.1555 24.5101 19.084 24.6941C20.0125 24.8781 20.9748 24.7827 21.8491 24.42C22.7235 24.0574 23.4707 23.4437 23.9964 22.6565C24.5221 21.8693 24.8027 20.944 24.8027 19.9974C24.8039 19.3675 24.6806 18.7436 24.4398 18.1615C24.1991 17.5794 23.8456 17.0507 23.3997 16.6057C22.9539 16.1607 22.4245 15.8083 21.8419 15.5687C21.2594 15.329 20.6352 15.2069 20.0053 15.2094ZM20.0053 23.1054C19.3906 23.1054 18.7897 22.9231 18.2786 22.5816C17.7675 22.2401 17.3692 21.7547 17.1339 21.1868C16.8987 20.6189 16.8371 19.9939 16.9571 19.3911C17.077 18.7882 17.373 18.2344 17.8076 17.7997C18.2423 17.365 18.7961 17.069 19.399 16.9491C20.0019 16.8292 20.6268 16.8907 21.1947 17.126C21.7626 17.3612 22.248 17.7596 22.5895 18.2707C22.9311 18.7818 23.1133 19.3827 23.1133 19.9974C23.1133 20.4055 23.0329 20.8097 22.8768 21.1868C22.7206 21.5639 22.4916 21.9065 22.203 22.1951C21.9144 22.4837 21.5718 22.7126 21.1947 22.8688C20.8176 23.025 20.4135 23.1054 20.0053 23.1054Z" fill="white"/>
</svg>
