<svg width="59" height="41" viewBox="0 0 59 41" fill="none" xmlns="http://www.w3.org/2000/svg">
<path d="M45.8125 26.25C43.3032 26.25 40.8502 25.5059 38.7637 24.1118C36.6773 22.7177 35.0511 20.7361 34.0908 18.4178C33.1305 16.0995 32.8792 13.5484 33.3688 11.0873C33.8583 8.62616 35.0667 6.36547 36.8411 4.59109C38.6155 2.81671 40.8762 1.60834 43.3373 1.11879C45.7984 0.629242 48.3495 0.880497 50.6678 1.84078C52.9861 2.80107 54.9677 4.42726 56.3618 6.51371C57.7559 8.60016 58.5 11.0532 58.5 13.5625L58.558 15.375C58.558 18.7073 57.9017 22.007 56.6265 25.0856C55.3512 28.1642 53.4821 30.9616 51.1258 33.3178C48.7696 35.6741 45.9722 37.5432 42.8936 38.8184C39.815 40.0937 36.5153 40.75 33.183 40.75V33.5C35.5643 33.5064 37.9232 33.0407 40.1233 32.1298C42.3235 31.2188 44.3212 29.8808 46.001 28.193C46.6539 27.5414 47.2562 26.8409 47.8026 26.0978C47.1443 26.2012 46.4789 26.2533 45.8125 26.2536V26.25ZM13.1875 26.25C10.6782 26.25 8.22516 25.5059 6.13871 24.1118C4.05226 22.7177 2.42607 20.7361 1.46578 18.4178C0.505497 16.0995 0.254242 13.5484 0.743792 11.0873C1.23334 8.62616 2.44171 6.36547 4.21609 4.59109C5.99047 2.81671 8.25116 1.60834 10.7123 1.11879C13.1734 0.629242 15.7245 0.880497 18.0428 1.84078C20.3611 2.80107 22.3427 4.42726 23.7368 6.51371C25.1309 8.60016 25.875 11.0532 25.875 13.5625L25.933 15.375C25.933 22.1049 23.2596 28.5591 18.5008 33.3178C13.7421 38.0766 7.28787 40.75 0.558006 40.75V33.5C2.93926 33.5064 5.29816 33.0407 7.49831 32.1298C9.69845 31.2188 11.6962 29.8808 13.376 28.193C14.0289 27.5414 14.6312 26.8409 15.1776 26.0978C14.5193 26.2012 13.8539 26.2533 13.1875 26.2536V26.25Z" fill="black"/>
</svg>
