<svg width="16" height="14" viewBox="0 0 16 14" fill="none" xmlns="http://www.w3.org/2000/svg">
<path d="M8 0.25C3.875 0.25 0.5 2.935 0.5 6.25C0.518831 7.04702 0.71347 7.83005 1.07001 8.54312C1.42655 9.2562 1.93618 9.88172 2.5625 10.375C2.5625 10.825 2.2475 12.0025 0.5 13.75C2.2775 13.6675 3.98 13 5.3525 11.875C6.2075 12.1225 7.1075 12.25 8 12.25C12.125 12.25 15.5 9.565 15.5 6.25C15.5 2.935 12.125 0.25 8 0.25ZM8 10.75C4.685 10.75 2 8.7325 2 6.25C2 3.7675 4.685 1.75 8 1.75C11.315 1.75 14 3.7675 14 6.25C14 8.7325 11.315 10.75 8 10.75Z" fill="black"/>
</svg>
