<svg width="18" height="16" viewBox="0 0 18 16" fill="none" xmlns="http://www.w3.org/2000/svg">
<path d="M14.6 10.2999C14.8917 9.59158 15.05 8.83325 15.05 7.99992C15.05 7.39992 14.9583 6.82491 14.8 6.29158C14.2583 6.41658 13.6917 6.48325 13.1 6.48325C11.8883 6.48455 10.6941 6.19452 9.61793 5.6376C8.54181 5.08068 7.61535 4.27321 6.91666 3.28325C6.16924 5.09173 4.75926 6.54642 2.97499 7.34992C2.94166 7.55825 2.94166 7.78325 2.94166 7.99992C2.94166 8.79551 3.09836 9.58331 3.40282 10.3183C3.70728 11.0534 4.15353 11.7212 4.7161 12.2838C5.85226 13.42 7.39322 14.0582 8.99999 14.0582C9.87499 14.0582 10.7167 13.8666 11.475 13.5249C11.95 14.4332 12.1667 14.8832 12.15 14.8832C10.7833 15.3416 9.72499 15.5666 8.99999 15.5666C6.98332 15.5666 5.05832 14.7749 3.64166 13.3499C2.77999 12.4909 2.13946 11.4358 1.77499 10.2749H0.666656V6.48325H1.57499C1.85019 5.14368 2.4829 3.90359 3.40598 2.89457C4.32906 1.88556 5.50808 1.14525 6.81793 0.752213C8.12778 0.359173 9.5196 0.328058 10.8457 0.66217C12.1718 0.996283 13.3827 1.68316 14.35 2.64991C15.4002 3.69596 16.1165 5.03 16.4083 6.48325H17.3333V10.2749H17.2833L14.3167 12.9999L9.89999 12.4999V11.1082H13.925L14.6 10.2999ZM6.72499 7.80825C6.97499 7.80825 7.21666 7.90825 7.39166 8.09158C7.56753 8.26889 7.66621 8.50851 7.66621 8.75825C7.66621 9.00799 7.56753 9.24761 7.39166 9.42492C7.21666 9.59992 6.97499 9.69991 6.72499 9.69991C6.19999 9.69991 5.77499 9.28325 5.77499 8.75825C5.77499 8.23325 6.19999 7.80825 6.72499 7.80825ZM11.2667 7.80825C11.7917 7.80825 12.2083 8.23325 12.2083 8.75825C12.2083 9.28325 11.7917 9.69991 11.2667 9.69991C10.7417 9.69991 10.3167 9.28325 10.3167 8.75825C10.3167 8.50629 10.4167 8.26466 10.5949 8.0865C10.7731 7.90834 11.0147 7.80825 11.2667 7.80825Z" fill="black"/>
</svg>
