<svg width="16" height="16" viewBox="0 0 16 16" fill="none" xmlns="http://www.w3.org/2000/svg">
<path d="M8 0.03125C6.42393 0.03125 4.88326 0.498609 3.5728 1.37423C2.26235 2.24984 1.24097 3.49439 0.637838 4.95049C0.0347026 6.40659 -0.123105 8.00884 0.184371 9.55463C0.491847 11.1004 1.2508 12.5203 2.36525 13.6348C3.4797 14.7492 4.89959 15.5082 6.44538 15.8156C7.99116 16.1231 9.59341 15.9653 11.0495 15.3622C12.5056 14.759 13.7502 13.7377 14.6258 12.4272C15.5014 11.1167 15.9688 9.57607 15.9688 8C15.9663 5.88732 15.1259 3.86188 13.632 2.36798C12.1381 0.87409 10.1127 0.0337311 8 0.03125ZM15.0313 8C15.0321 8.96404 14.8337 9.91784 14.4484 10.8016L10.8008 8.55859C10.6712 8.4771 10.5258 8.42386 10.3742 8.40234L8.59141 8.1625C8.36133 8.1327 8.12772 8.17653 7.92407 8.28768C7.72043 8.39884 7.55721 8.57162 7.45782 8.78125H6.68282C6.65345 8.78124 6.62468 8.77295 6.59981 8.75733C6.57493 8.74172 6.55497 8.71941 6.54219 8.69297L6.24532 8.07891C6.17317 7.92899 6.06764 7.79759 5.93682 7.6948C5.80599 7.59201 5.65336 7.52056 5.49063 7.48594L4.65391 7.30625L5.375 6.04688C5.38877 6.02303 5.40859 6.00325 5.43246 5.98953C5.45634 5.97581 5.48341 5.96864 5.51094 5.96875H6.81641C7.00122 5.96886 7.18299 5.9218 7.34453 5.83203L8.30157 5.30469C8.37496 5.26337 8.4436 5.21411 8.50625 5.15781L10.6086 3.25703C10.793 3.09156 10.9154 2.86812 10.9556 2.62365C10.9958 2.37918 10.9514 2.12831 10.8297 1.9125L10.5781 1.45703C11.8904 1.97606 13.0165 2.87729 13.8106 4.04393C14.6046 5.21056 15.0298 6.5888 15.0313 8ZM9.29688 1.08906L10.0117 2.36953C10.0289 2.40046 10.0351 2.43631 10.0293 2.47123C10.0235 2.50614 10.006 2.53805 9.97969 2.56172L7.87735 4.4625C7.86863 4.47071 7.85892 4.47779 7.84844 4.48359L6.89141 5.01172C6.86752 5.02494 6.84059 5.03168 6.81328 5.03125H5.51094C5.31874 5.03104 5.12988 5.08147 4.96337 5.17748C4.79687 5.27349 4.6586 5.41167 4.5625 5.57812L3.71719 7.05547C3.71135 7.04687 3.70637 7.03771 3.70235 7.02812L2.80469 4.63203C2.78991 4.59491 2.78991 4.55353 2.80469 4.51641L3.67813 2.45781C4.46385 1.84389 5.37129 1.4043 6.34009 1.1683C7.30889 0.932297 8.31683 0.905285 9.29688 1.08906ZM0.968754 8C0.967555 6.80285 1.27368 5.62543 1.85782 4.58047C1.85795 4.71044 1.88151 4.83932 1.92735 4.96094L2.825 7.35703C2.88885 7.52895 2.99508 7.68196 3.13384 7.80187C3.2726 7.92178 3.4394 8.00471 3.61875 8.04297L5.29375 8.40234C5.31702 8.40738 5.33884 8.41768 5.35752 8.43244C5.37621 8.4472 5.39127 8.46603 5.40157 8.4875L5.69844 9.10156C5.78849 9.28612 5.92844 9.44176 6.10242 9.55084C6.2764 9.65993 6.47747 9.71809 6.68282 9.71875H7.03907L6.37578 11.2031C6.28876 11.3985 6.26095 11.6152 6.2958 11.8263C6.33066 12.0373 6.42664 12.2336 6.57188 12.3906L6.57969 12.3992L8.11719 13.982C8.13292 14 8.14434 14.0212 8.15057 14.0443C8.15679 14.0673 8.15767 14.0914 8.15313 14.1148L7.97657 15.0312C6.11646 15.023 4.33525 14.2788 3.02214 12.9613C1.70903 11.6438 0.9708 9.86012 0.968754 8ZM8.94375 14.968L9.07422 14.2961C9.1063 14.1276 9.09849 13.9539 9.05141 13.7889C9.00434 13.624 8.91931 13.4723 8.80313 13.3461L8.79532 13.3375L7.25782 11.7547C7.23792 11.7322 7.22492 11.7045 7.22034 11.6749C7.21577 11.6452 7.21983 11.6149 7.23203 11.5875L8.30235 9.18672C8.31594 9.15503 8.33963 9.12874 8.36973 9.11192C8.39983 9.0951 8.43465 9.08872 8.46875 9.09375L10.2516 9.33438C10.2731 9.33709 10.2939 9.34428 10.3125 9.35547L14.0156 11.6367C13.4719 12.5348 12.7342 13.3 11.8567 13.8764C10.9792 14.4527 9.98395 14.8257 8.94375 14.968Z" fill="black"/>
</svg>
