<svg width="18" height="18" viewBox="0 0 18 18" fill="none" xmlns="http://www.w3.org/2000/svg">
<path d="M9.00002 0.666748C7.90567 0.666748 6.82204 0.882296 5.81099 1.30109C4.79994 1.71987 3.88129 2.3337 3.10746 3.10752C1.54466 4.67033 0.666687 6.78994 0.666687 9.00008C0.666687 11.2102 1.54466 13.3298 3.10746 14.8926C3.88129 15.6665 4.79994 16.2803 5.81099 16.6991C6.82204 17.1179 7.90567 17.3334 9.00002 17.3334C11.2102 17.3334 13.3298 16.4554 14.8926 14.8926C16.4554 13.3298 17.3334 11.2102 17.3334 9.00008C17.3334 7.90573 17.1178 6.8221 16.699 5.81105C16.2802 4.80001 15.6664 3.88135 14.8926 3.10752C14.1188 2.3337 13.2001 1.71987 12.189 1.30109C11.178 0.882296 10.0944 0.666748 9.00002 0.666748ZM4.89169 14.2334C5.25002 13.4834 7.43335 12.7501 9.00002 12.7501C10.5667 12.7501 12.75 13.4834 13.1084 14.2334C11.9412 15.1634 10.4924 15.6689 9.00002 15.6667C7.45002 15.6667 6.02502 15.1334 4.89169 14.2334ZM14.3 13.0251C13.1084 11.5751 10.2167 11.0834 9.00002 11.0834C7.78335 11.0834 4.89169 11.5751 3.70002 13.0251C2.81351 11.8706 2.33308 10.4557 2.33335 9.00008C2.33335 5.32508 5.32502 2.33341 9.00002 2.33341C12.675 2.33341 15.6667 5.32508 15.6667 9.00008C15.6667 10.5167 15.15 11.9167 14.3 13.0251ZM9.00002 4.00008C7.38335 4.00008 6.08335 5.30008 6.08335 6.91675C6.08335 8.53341 7.38335 9.83341 9.00002 9.83341C10.6167 9.83341 11.9167 8.53341 11.9167 6.91675C11.9167 5.30008 10.6167 4.00008 9.00002 4.00008ZM9.00002 8.16675C8.6685 8.16675 8.35056 8.03505 8.11614 7.80063C7.88172 7.56621 7.75002 7.24827 7.75002 6.91675C7.75002 6.58523 7.88172 6.26728 8.11614 6.03286C8.35056 5.79844 8.6685 5.66675 9.00002 5.66675C9.33154 5.66675 9.64948 5.79844 9.8839 6.03286C10.1183 6.26728 10.25 6.58523 10.25 6.91675C10.25 7.24827 10.1183 7.56621 9.8839 7.80063C9.64948 8.03505 9.33154 8.16675 9.00002 8.16675Z" fill="black"/>
</svg>
