<svg width="261" height="105" viewBox="0 0 261 105" fill="none" xmlns="http://www.w3.org/2000/svg">
<rect width="261" height="105" rx="20" fill="white"/>
<rect x="15" y="15" width="75" height="75" rx="37.5" fill="#D5F3F8"/>
<path fill-rule="evenodd" clip-rule="evenodd" d="M35 35H37.1875V67.8125H70V70H35V35ZM56.875 42.6562C56.875 42.3662 56.9902 42.088 57.1954 41.8829C57.4005 41.6777 57.6787 41.5625 57.9688 41.5625H66.7188C67.0088 41.5625 67.287 41.6777 67.4921 41.8829C67.6973 42.088 67.8125 42.3662 67.8125 42.6562V51.4062C67.8125 51.6963 67.6973 51.9745 67.4921 52.1796C67.287 52.3848 67.0088 52.5 66.7188 52.5C66.4287 52.5 66.1505 52.3848 65.9454 52.1796C65.7402 51.9745 65.625 51.6963 65.625 51.4062V45.7188L57.7216 55.3809C57.6248 55.499 57.5044 55.5956 57.3681 55.6643C57.2318 55.7331 57.0826 55.7725 56.9301 55.7802C56.7776 55.7878 56.6253 55.7634 56.4828 55.7086C56.3403 55.6538 56.2109 55.5697 56.1028 55.4619L50.4437 49.8028L42.4462 60.7994C42.2713 61.0218 42.0169 61.1678 41.7366 61.2067C41.4563 61.2455 41.1718 61.1742 40.9429 61.0076C40.7141 60.8411 40.5587 60.5923 40.5095 60.3136C40.4602 60.035 40.5209 59.748 40.6788 59.5131L49.4288 47.4819C49.5216 47.3539 49.6411 47.2477 49.779 47.1703C49.9169 47.093 50.07 47.0465 50.2276 47.0341C50.3852 47.0216 50.5436 47.0434 50.6919 47.0981C50.8403 47.1527 50.975 47.2389 51.0869 47.3506L56.7941 53.06L64.4109 43.75H57.9688C57.6787 43.75 57.4005 43.6348 57.1954 43.4296C56.9902 43.2245 56.875 42.9463 56.875 42.6562Z" fill="black"/>
<path d="M123.968 65L116.768 42.248V65H113.096V38.9H119.252L125.912 60.644L132.572 38.9H138.728V65H135.056V42.248L127.856 65H123.968ZM143.256 59.888C143.256 55.316 148.404 53.984 156.36 53.084V52.616C156.36 49.088 154.38 47.9 151.968 47.9C149.268 47.9 147.684 49.376 147.54 51.752H144.156C144.48 47.576 148.152 45.236 151.932 45.236C157.26 45.236 159.672 47.792 159.636 53.228L159.6 57.692C159.564 60.932 159.744 63.164 160.104 65H156.792C156.684 64.28 156.576 63.488 156.54 62.336C155.352 64.316 153.336 65.468 149.916 65.468C146.28 65.468 143.256 63.452 143.256 59.888ZM156.612 55.676C150.672 56.288 146.892 57.152 146.892 59.816C146.892 61.652 148.296 62.876 150.636 62.876C153.696 62.876 156.612 61.472 156.612 56.9V55.676ZM167.794 48.548C168.91 46.712 170.782 45.308 174.058 45.308C178.738 45.308 180.43 48.332 180.43 52.76V65H177.154V53.732C177.154 50.744 176.65 48.152 172.906 48.152C169.738 48.152 167.794 50.348 167.794 54.488V65H164.518V45.632H167.794V48.548ZM184.178 59.888C184.178 55.316 189.326 53.984 197.282 53.084V52.616C197.282 49.088 195.302 47.9 192.89 47.9C190.19 47.9 188.606 49.376 188.462 51.752H185.078C185.402 47.576 189.074 45.236 192.854 45.236C198.182 45.236 200.594 47.792 200.558 53.228L200.522 57.692C200.486 60.932 200.666 63.164 201.026 65H197.714C197.606 64.28 197.498 63.488 197.462 62.336C196.274 64.316 194.258 65.468 190.838 65.468C187.202 65.468 184.178 63.452 184.178 59.888ZM197.534 55.676C191.594 56.288 187.814 57.152 187.814 59.816C187.814 61.652 189.218 62.876 191.558 62.876C194.618 62.876 197.534 61.472 197.534 56.9V55.676ZM218.472 45.632H221.748V62.408C221.748 66.368 221.028 67.988 219.912 69.212C218.508 70.832 216.096 71.768 213.216 71.768C208.824 71.768 205.872 69.752 205.26 65.828H208.752C209.184 67.556 210.228 68.888 213.252 68.888C215.016 68.888 216.348 68.384 217.212 67.448C217.932 66.692 218.472 65.792 218.472 63.164V61.328C217.284 63.38 215.412 64.676 212.316 64.676C208.032 64.676 204.108 61.22 204.108 54.992C204.108 48.8 208.032 45.308 212.316 45.308C215.412 45.308 217.284 46.64 218.472 48.692V45.632ZM213.144 48.116C209.94 48.116 207.672 50.6 207.672 54.992C207.672 59.42 209.94 61.904 213.144 61.904C216.06 61.904 218.616 59.924 218.616 54.992C218.616 50.096 216.06 48.116 213.144 48.116ZM229.116 56.396C229.26 60.572 232.212 62.588 235.092 62.588C237.972 62.588 239.556 61.292 240.384 59.384H243.768C242.868 62.732 239.808 65.468 235.092 65.468C228.972 65.468 225.588 61.076 225.588 55.352C225.588 49.232 229.692 45.308 234.984 45.308C240.888 45.308 244.452 50.276 244.02 56.396H229.116ZM229.152 53.588H240.564C240.492 50.852 238.44 48.116 234.984 48.116C232.068 48.116 229.44 49.7 229.152 53.588Z" fill="black"/>
</svg>
