<svg width="22" height="30" viewBox="0 0 22 30" fill="none" xmlns="http://www.w3.org/2000/svg">
<path d="M19 0.5C16.7838 0.503651 14.6202 1.17605 12.7924 2.42925C10.9645 3.68245 9.55735 5.45811 8.755 7.524C8.11221 6.5917 7.25266 5.82943 6.25021 5.30269C5.24777 4.77595 4.13241 4.50049 3 4.5H0V7.5C0.00211736 9.35587 0.740295 11.1351 2.05259 12.4474C3.36489 13.7597 5.14413 14.4979 7 14.5H8V23.55C5.70312 23.7745 3.5563 24.7926 1.929 26.429L3.343 27.843C4.1795 27.0065 5.19109 26.366 6.30492 25.9675C7.41875 25.569 8.6071 25.4225 9.78437 25.5385C10.9616 25.6545 12.0985 26.0301 13.1131 26.6384C14.1278 27.2466 14.9949 28.0723 15.652 29.056L17.313 27.943C16.4932 26.718 15.4123 25.6899 14.1478 24.9324C12.8834 24.1749 11.4668 23.7069 10 23.562V14.5H11C13.9164 14.4968 16.7125 13.3369 18.7747 11.2747C20.8369 9.21245 21.9968 6.41641 22 3.5V0.5H19ZM7 12.5C5.67441 12.4984 4.40356 11.9711 3.46622 11.0338C2.52888 10.0964 2.00159 8.82559 2 7.5V6.5H3C4.32568 6.50132 5.59668 7.02853 6.53407 7.96593C7.47147 8.90332 7.99868 10.1743 8 11.5V12.5H7ZM20 3.5C19.9974 5.88614 19.0483 8.17378 17.361 9.86104C15.6738 11.5483 13.3861 12.4974 11 12.5H10V11.5C10.0026 9.11386 10.9517 6.82622 12.639 5.13896C14.3262 3.45171 16.6139 2.50265 19 2.5H20V3.5Z" fill="black"/>
</svg>
