<svg width="11" height="20" viewBox="0 0 11 20" fill="none" xmlns="http://www.w3.org/2000/svg">
<path d="M2.1501 1.09736L10.5751 9.49736C10.6751 9.59736 10.7458 9.7057 10.7871 9.82236C10.8291 9.93903 10.8501 10.064 10.8501 10.1974C10.8501 10.3307 10.8291 10.4557 10.7871 10.5724C10.7458 10.689 10.6751 10.7974 10.5751 10.8974L2.1501 19.3224C1.91676 19.5557 1.6251 19.6724 1.2751 19.6724C0.925097 19.6724 0.625098 19.5474 0.375098 19.2974C0.125098 19.0474 9.82285e-05 18.7557 9.82285e-05 18.4224C9.82285e-05 18.089 0.125098 17.7974 0.375098 17.5474L7.7251 10.1974L0.375098 2.84736C0.141765 2.61403 0.0250978 2.3267 0.0250978 1.98536C0.0250978 1.64336 0.150098 1.34736 0.400098 1.09736C0.650098 0.847363 0.941765 0.722363 1.2751 0.722363C1.60843 0.722363 1.9001 0.847363 2.1501 1.09736Z" fill="black"/>
</svg>
