<svg width="30" height="31" viewBox="0 0 30 31" fill="none" xmlns="http://www.w3.org/2000/svg">
<path d="M15.0001 18.1666L18.3334 14.8333M15.0001 16.1666L11.0001 12.1666M15.0001 28.8333V11.5M7.69675 8.83329C8.03341 5.09529 11.1747 2.16663 15.0001 2.16663C18.8254 2.16663 21.9667 5.09529 22.3034 8.83329H22.3334C23.9247 8.83329 25.4508 9.46543 26.5761 10.5907C27.7013 11.7159 28.3334 13.242 28.3334 14.8333C28.3334 16.4246 27.7013 17.9507 26.5761 19.0759C25.4508 20.2011 23.9247 20.8333 22.3334 20.8333H7.66675C6.07545 20.8333 4.54933 20.2011 3.42411 19.0759C2.29889 17.9507 1.66675 16.4246 1.66675 14.8333C1.66675 13.242 2.29889 11.7159 3.42411 10.5907C4.54933 9.46543 6.07545 8.83329 7.66675 8.83329H7.69675Z" stroke="black" stroke-width="3" stroke-linecap="round" stroke-linejoin="round"/>
</svg>
