<svg width="40" height="40" viewBox="0 0 40 40" fill="none" xmlns="http://www.w3.org/2000/svg">
<rect x="0.00012207" width="40" height="40" rx="8" fill="white" fill-opacity="0.1"/>
<path fill-rule="evenodd" clip-rule="evenodd" d="M29.3905 12.1117C30.4185 12.3884 31.229 13.199 31.5058 14.227C32.0198 16.1051 32 20.0194 32 20.0194C32 20.0194 32 23.9139 31.5058 25.792C31.229 26.82 30.4185 27.6305 29.3905 27.9073C27.5124 28.4015 20.0001 28.4015 20.0001 28.4015C20.0001 28.4015 12.5075 28.4015 10.6097 27.8875C9.58166 27.6108 8.77112 26.8002 8.49435 25.7722C8.00012 23.9139 8.00012 19.9996 8.00012 19.9996C8.00012 19.9996 8.00012 16.1051 8.49435 14.227C8.77112 13.199 9.60143 12.3687 10.6097 12.0919C12.4877 11.5977 20.0001 11.5977 20.0001 11.5977C20.0001 11.5977 27.5124 11.5977 29.3905 12.1117ZM23.8546 20.0004L17.6075 23.5984V16.4023L23.8546 20.0004Z" fill="white"/>
</svg>
